<svg version="1.1" id="Layer_1" xmlns="http://www.w3.org/2000/svg" xmlns:xlink="http://www.w3.org/1999/xlink" x="0px" y="0px"
	 width="100%" viewBox="0 0 542 174" enable-background="new 0 0 542 174" xml:space="preserve">
<path fill="#FFFEFE" opacity="1.000000" stroke="none" 
	d="
M355.000000,175.000000 
	C236.666687,175.000000 118.833374,175.000000 1.000047,175.000000 
	C1.000032,117.000031 1.000032,59.000065 1.000016,1.000071 
	C181.666611,1.000047 362.333221,1.000047 542.999878,1.000024 
	C542.999878,58.999924 542.999878,116.999847 542.999939,174.999878 
	C480.500000,175.000000 418.000000,175.000000 355.000000,175.000000 
M305.949463,93.950310 
	C305.949463,93.950310 305.923859,93.864639 305.400085,94.022118 
	C305.249786,94.338646 305.099487,94.655167 305.002106,94.995865 
	C305.002106,94.995865 304.961060,94.954185 304.340973,95.302170 
	C302.204376,99.142563 301.496216,103.025558 304.000000,107.000305 
	C304.000000,107.000305 303.994019,107.008179 304.085663,107.684052 
	C306.383484,109.136314 308.681274,110.588570 310.981689,111.992882 
	C310.981689,111.992882 310.952148,112.031250 311.482727,112.519524 
	C315.628754,114.049187 319.774750,115.578850 323.983063,117.011978 
	C323.983063,117.011978 323.890991,117.080696 324.181335,117.831673 
	C324.422089,120.208900 324.662842,122.586128 324.985535,124.975281 
	C324.985535,124.975281 324.935303,124.909485 324.426910,125.179474 
	C324.133972,125.666855 323.841034,126.154228 323.691223,126.711197 
	C323.691223,126.711197 323.630371,126.564140 322.880280,126.864693 
	C316.754181,129.735733 313.926666,129.342468 308.996338,124.986183 
	C308.996338,124.986183 309.058777,124.976410 308.995239,124.245338 
	C307.709900,120.124435 304.969299,121.552513 301.787598,122.212563 
	C302.662537,124.109627 303.329529,125.555824 304.000000,127.000000 
	C304.000000,127.000000 303.997375,127.003494 304.104401,127.679108 
	C309.849457,133.972137 317.996979,135.293121 325.019135,131.011398 
	C325.019135,131.011398 325.054962,131.106720 325.662994,131.051804 
	C326.257141,130.526108 326.851288,130.000412 327.227264,129.254501 
	C327.227264,129.254501 327.485199,129.426453 327.935089,129.223663 
	C328.214355,129.012344 328.373779,128.732697 328.181427,127.959915 
	C328.181427,127.959915 328.432983,128.374939 329.009125,127.944374 
	C331.309326,124.460533 332.081482,120.833267 329.993195,116.981560 
	C329.993195,116.981560 330.054169,116.968369 330.056244,116.320564 
	C329.386566,115.523903 328.716888,114.727242 328.003601,113.996452 
	C328.003601,113.996452 328.069397,113.952805 327.833527,113.354401 
	C326.907532,112.871819 325.981506,112.389236 325.017670,111.994087 
	C325.017670,111.994087 325.089722,111.931770 324.653992,111.361397 
	C320.124603,109.857254 315.595215,108.353111 311.063629,106.939461 
	C311.063629,106.939461 311.150757,106.914932 310.940247,106.423203 
	C310.628662,106.271927 310.317078,106.120659 309.853851,105.508766 
	C309.666687,105.219856 309.403748,105.044594 308.886871,104.106995 
	C307.644836,97.933464 310.038300,94.652100 316.070679,94.937836 
	C318.390137,95.047691 320.653809,96.335274 322.985382,97.014450 
	C322.985382,97.014450 322.906860,97.042580 323.092316,97.682945 
	C324.074127,98.676384 325.055939,99.669815 326.669159,100.863068 
	C327.103088,100.807236 327.536987,100.751396 328.634094,100.888039 
	C332.173492,98.547806 329.513397,96.778816 328.020905,94.975845 
	C328.020905,94.975845 328.114746,94.941048 328.004822,94.396469 
	C327.696014,94.217545 327.387207,94.038612 327.050507,93.947838 
	C327.050507,93.947838 327.137817,93.917366 326.979797,93.391098 
	C326.664307,93.238373 326.348846,93.085648 326.008240,93.000160 
	C326.008240,93.000160 326.062622,92.953262 325.691742,92.326141 
	C319.327423,88.968178 313.060028,88.418015 306.998260,93.001450 
	C306.998260,93.001450 306.978729,92.965851 306.436798,93.042717 
	C306.245728,93.336891 306.054688,93.631065 305.949463,93.950310 
M450.722443,126.742958 
	C454.813599,119.351700 455.221222,112.083595 449.903931,104.490128 
	C449.627625,104.300041 449.351318,104.109947 448.795441,103.287025 
	C441.165070,96.745277 433.491791,97.777359 425.469696,103.975800 
	C425.680237,98.997482 423.439362,98.537605 419.892822,99.975777 
	C419.892822,116.127815 419.892822,132.347717 419.892822,148.784927 
	C421.671967,148.784927 423.275360,148.784927 425.504456,148.784927 
	C425.504456,142.089615 425.504456,135.599594 425.504456,128.150803 
	C431.577759,133.332245 437.396149,135.243988 444.731995,131.997940 
	C446.530365,130.372482 448.328735,128.747040 450.722443,126.742958 
M378.436981,112.789558 
	C378.497711,113.490952 378.558441,114.192337 378.289948,115.750221 
	C378.402893,117.868576 378.515839,119.986931 378.436584,122.888344 
	C378.505615,124.222534 378.574646,125.556717 378.305969,127.787880 
	C378.266235,133.760925 378.134491,139.736099 378.272827,145.705002 
	C378.297241,146.759628 379.448853,147.788116 380.774475,148.944336 
	C381.475189,148.901749 382.175934,148.859161 383.757355,148.672989 
	C383.886169,146.735855 384.028412,144.799515 384.141113,142.861450 
	C384.420868,138.051529 384.687134,133.240799 385.480347,129.002899 
	C388.159607,130.397232 390.696472,132.399597 393.545990,133.067078 
	C400.851166,134.778183 407.671661,131.102997 410.739044,124.434120 
	C413.956665,117.438545 412.384247,107.449799 407.323853,103.172928 
	C406.611267,102.570656 405.639191,102.265755 404.770203,101.859695 
	C398.239502,98.808052 391.934448,98.816681 385.138184,103.376801 
	C384.596558,102.134033 384.054932,100.891273 383.350250,99.274399 
	C381.747589,100.198578 378.046265,96.940239 378.462280,102.704758 
	C378.523468,103.098839 378.584656,103.492920 378.309235,104.751770 
	C378.417969,107.203552 378.526672,109.655327 378.436981,112.789558 
M39.499878,160.329712 
	C45.663860,160.330383 51.830669,160.432526 57.989861,160.261078 
	C59.547886,160.217697 61.081608,159.301483 62.626499,158.786346 
	C61.168999,158.194717 59.742352,157.208923 58.247700,157.091934 
	C54.935997,156.832748 51.590153,157.009125 48.258228,157.009033 
	C37.653702,157.008713 27.049173,157.008911 16.320049,157.008911 
	C16.320049,112.544876 16.320049,68.654327 16.320049,24.623390 
	C60.291721,24.623390 103.989616,24.623390 147.931351,24.623390 
	C147.931351,38.978230 147.898361,52.963116 147.981293,66.947319 
	C147.989777,68.377556 148.692841,69.803673 149.073578,71.231705 
	C149.608154,71.099022 150.142715,70.966347 150.677277,70.833664 
	C150.677277,54.309753 150.677277,37.785839 150.677277,21.396286 
	C104.588478,21.396286 58.875244,21.396286 13.262604,21.396286 
	C13.262604,67.857674 13.262604,113.939102 13.262604,160.329819 
	C21.883247,160.329819 30.191572,160.329819 39.499878,160.329712 
M191.624268,128.880005 
	C198.476196,136.673813 216.235703,134.628967 218.564102,121.343369 
	C215.420944,123.105873 212.977219,123.938438 211.267120,125.549644 
	C207.945587,128.679047 203.200043,129.921768 198.869446,127.847916 
	C195.062546,126.024834 192.708115,123.152672 193.123230,118.115402 
	C202.034790,118.115402 210.597137,118.115402 219.089417,118.115402 
	C219.996277,109.840714 217.512115,104.191643 211.827896,101.035133 
	C206.050568,97.826920 197.961426,98.360909 192.977295,102.279480 
	C185.659073,108.033173 184.842255,119.498444 191.624268,128.880005 
M266.359955,133.030319 
	C269.098297,133.483017 269.688385,132.142349 269.650238,129.637299 
	C269.561493,123.811134 269.513733,117.964592 269.903656,112.156807 
	C270.249207,107.009499 273.375458,104.218819 278.201904,103.919052 
	C284.209106,103.545937 287.858124,106.400009 288.146851,112.445740 
	C288.469849,119.209518 288.221008,126.000610 288.221008,132.805756 
	C290.537109,132.805756 292.127350,132.805756 293.944733,132.805756 
	C293.944733,125.445854 294.247162,118.289810 293.862915,111.170837 
	C293.446991,103.464600 287.926605,98.509193 280.252869,99.065269 
	C276.694244,99.323135 273.242249,101.052025 269.474731,102.195091 
	C269.474731,97.721489 269.474731,92.951408 269.474731,88.001892 
	C267.509644,88.001892 265.909241,88.001892 263.944305,88.001892 
	C263.944305,102.464668 263.924316,116.754189 264.007660,131.043121 
	C264.011505,131.706329 264.939667,132.364120 266.359955,133.030319 
M58.367374,96.687271 
	C58.367374,108.731567 58.367374,120.775864 58.367374,132.763779 
	C60.636238,132.763779 62.209534,132.763779 64.206108,132.763779 
	C64.206108,126.798164 64.206108,121.088585 64.206108,115.014877 
	C68.280327,115.014877 71.947739,115.272873 75.565536,114.959023 
	C82.273483,114.377106 86.741486,109.643280 86.969902,103.323708 
	C87.203178,96.869904 83.254929,91.680664 76.522171,90.978790 
	C70.683052,90.370064 64.730209,90.852188 58.352432,90.852188 
	C58.352432,92.501648 58.352432,94.123985 58.367374,96.687271 
M472.371796,133.190918 
	C483.033386,134.533508 491.110474,129.184372 492.795471,119.665131 
	C494.494019,110.069321 489.226959,101.502281 480.299469,99.339874 
	C471.018402,97.091820 462.247070,102.152710 459.738678,111.203026 
	C456.995422,121.100609 461.677917,129.751953 472.371796,133.190918 
M147.008957,108.668365 
	C146.539368,107.790726 146.154312,106.853783 145.586807,106.044830 
	C141.017639,99.531685 132.307968,97.123360 124.658066,100.220024 
	C117.450394,103.137665 113.726463,110.550224 114.921539,119.600815 
	C115.934830,127.274689 121.656700,132.643417 129.669235,133.438324 
	C142.939316,134.754807 151.205780,123.459305 147.008957,108.668365 
M242.273270,103.871185 
	C244.529541,105.088203 247.688965,105.753883 248.842758,107.643921 
	C250.869461,110.963905 253.196655,110.215965 255.955902,110.008034 
	C253.746246,101.887032 247.057892,97.850945 238.290985,99.080406 
	C229.890549,100.258476 224.565689,107.101540 224.695328,116.552399 
	C224.828079,126.231499 230.358749,132.582825 239.422989,133.465347 
	C247.757385,134.276810 254.068207,130.078812 255.896271,122.347595 
	C253.068161,121.938736 250.604721,121.525909 248.892090,124.922165 
	C248.123260,126.446815 245.974060,127.569221 244.210068,128.238312 
	C240.286163,129.726654 236.458282,128.835281 233.687103,125.809448 
	C229.564499,121.308022 229.526413,115.741890 231.372070,110.334412 
	C232.922867,105.790825 236.522491,103.573143 242.273270,103.871185 
M362.023865,130.234634 
	C364.007721,131.414871 365.991577,132.595108 368.741577,134.231140 
	C368.741577,121.657478 368.741577,110.626472 368.741577,99.312096 
	C366.877014,99.430634 365.441010,99.521927 363.441589,99.649040 
	C363.441589,105.875381 363.588409,111.834503 363.404114,117.783371 
	C363.178619,125.061066 359.796967,128.691345 353.769989,128.560318 
	C347.981842,128.434479 344.947388,124.818298 344.851715,117.720284 
	C344.771637,111.780937 344.835266,105.839661 344.835266,99.660767 
	C342.660461,99.660767 341.094299,99.660767 339.026184,99.660767 
	C339.026184,106.238586 339.005951,112.524117 339.032318,118.809456 
	C339.055328,124.301468 340.643738,129.202148 345.813660,131.806763 
	C351.057678,134.448730 356.420654,134.278275 362.023865,130.234634 
M169.482834,90.290924 
	C164.177124,90.290924 158.871399,90.290924 153.305634,90.290924 
	C153.305634,92.014122 153.305634,93.363098 153.305634,95.021194 
	C157.207443,95.021194 160.840286,95.021194 164.770172,95.021194 
	C164.770172,107.771477 164.770172,120.217354 164.770172,132.838959 
	C166.693024,132.838959 168.313263,132.838959 170.261261,132.838959 
	C170.261261,120.244202 170.261261,107.803047 170.261261,94.893829 
	C174.347260,94.893829 178.110764,94.893829 182.074692,94.893829 
	C181.932739,93.143188 181.830399,91.881111 181.700790,90.282616 
	C177.752625,90.282616 174.111938,90.282616 169.482834,90.290924 
M524.856689,128.262909 
	C527.411682,132.229126 535.659119,134.866196 538.538330,132.151657 
	C538.449707,131.109650 538.333191,129.740784 538.331543,129.721130 
	C534.917603,127.955078 530.564697,126.908676 530.405396,125.415092 
	C529.661743,118.441628 530.075500,111.344749 530.075500,104.312935 
	C533.256775,104.154251 535.699280,104.032425 538.320129,103.901695 
	C538.320129,102.473526 538.571655,100.478264 538.280762,100.395790 
	C535.691284,99.661530 533.005920,99.265305 530.117004,98.726158 
	C529.960571,96.319313 529.802856,93.891594 529.637817,91.351311 
	C527.663391,91.351311 525.975708,91.351311 524.021423,91.351311 
	C524.021423,94.028824 524.021423,96.326988 524.021423,97.350586 
	C522.124390,99.436409 520.030151,100.757088 520.121216,101.904411 
	C520.219849,103.148064 522.354553,104.230202 524.620300,106.324707 
	C524.620300,112.553383 524.620300,120.009361 524.856689,128.262909 
M93.939804,114.504700 
	C93.939804,120.605042 93.939804,126.705383 93.939804,132.820312 
	C95.999710,132.820312 97.591721,132.820312 99.598808,132.820312 
	C99.598808,127.498627 99.573288,122.383728 99.604301,117.269157 
	C99.662811,107.617599 100.796837,106.208244 109.991119,104.248970 
	C109.991119,102.543678 109.991119,100.832130 109.991119,97.961540 
	C106.160095,99.752327 103.034683,101.213272 99.730171,102.757942 
	C100.021980,97.695412 96.765297,99.601494 93.939804,99.762627 
	C93.939804,104.568405 93.939804,109.037949 93.939804,114.504700 
M505.945068,121.523849 
	C505.948944,119.360176 505.603088,117.122375 506.042114,115.050926 
	C506.638214,112.238632 507.171204,108.941170 508.968445,106.993439 
	C510.629486,105.193314 513.921326,104.897987 516.791809,103.829414 
	C516.717285,102.351189 516.637451,100.767296 516.497253,97.985466 
	C512.544006,99.674728 509.347198,101.040756 506.190674,102.389572 
	C505.754547,97.933182 503.000458,99.112747 500.258606,100.000175 
	C500.258606,111.019897 500.258606,121.791229 500.258606,132.739899 
	C502.195526,132.739899 503.897278,132.739899 505.944885,132.739899 
	C505.944885,129.105850 505.944885,125.804207 505.945068,121.523849 
z"/>
<path fill="#CB1B1C" opacity="1.000000" stroke="none" 
	d="
M38.999886,160.329773 
	C30.191572,160.329819 21.883247,160.329819 13.262604,160.329819 
	C13.262604,113.939102 13.262604,67.857674 13.262604,21.396286 
	C58.875244,21.396286 104.588478,21.396286 150.677277,21.396286 
	C150.677277,37.785839 150.677277,54.309753 150.677277,70.833664 
	C150.142715,70.966347 149.608154,71.099022 149.073578,71.231705 
	C148.692841,69.803673 147.989777,68.377556 147.981293,66.947319 
	C147.898361,52.963116 147.931351,38.978230 147.931351,24.623390 
	C103.989616,24.623390 60.291721,24.623390 16.320049,24.623390 
	C16.320049,68.654327 16.320049,112.544876 16.320049,157.008911 
	C27.049173,157.008911 37.653702,157.008713 48.258228,157.009033 
	C51.590153,157.009125 54.935997,156.832748 58.247700,157.091934 
	C59.742352,157.208923 61.168999,158.194717 62.626499,158.786346 
	C61.081608,159.301483 59.547886,160.217697 57.989861,160.261078 
	C51.830669,160.432526 45.663860,160.330383 38.999886,160.329773 
z"/>
<path fill="#0A0A0A" opacity="1.000000" stroke="none" 
	d="
M191.372162,128.614441 
	C184.842255,119.498444 185.659073,108.033173 192.977295,102.279480 
	C197.961426,98.360909 206.050568,97.826920 211.827896,101.035133 
	C217.512115,104.191643 219.996277,109.840714 219.089417,118.115402 
	C210.597137,118.115402 202.034790,118.115402 193.123230,118.115402 
	C192.708115,123.152672 195.062546,126.024834 198.869446,127.847916 
	C203.200043,129.921768 207.945587,128.679047 211.267120,125.549644 
	C212.977219,123.938438 215.420944,123.105873 218.564102,121.343369 
	C216.235703,134.628967 198.476196,136.673813 191.372162,128.614441 
M203.479828,103.785736 
	C196.312576,104.417374 193.248627,107.394440 193.319107,113.889397 
	C199.446930,113.889397 205.578827,113.897865 211.710602,113.876335 
	C212.325439,113.874176 212.939636,113.690063 213.545959,113.591713 
	C212.780396,107.022415 210.868103,105.029976 203.479828,103.785736 
z"/>
<path fill="#111111" opacity="1.000000" stroke="none" 
	d="
M265.898682,133.027374 
	C264.939667,132.364120 264.011505,131.706329 264.007660,131.043121 
	C263.924316,116.754189 263.944305,102.464668 263.944305,88.001892 
	C265.909241,88.001892 267.509644,88.001892 269.474731,88.001892 
	C269.474731,92.951408 269.474731,97.721489 269.474731,102.195091 
	C273.242249,101.052025 276.694244,99.323135 280.252869,99.065269 
	C287.926605,98.509193 293.446991,103.464600 293.862915,111.170837 
	C294.247162,118.289810 293.944733,125.445854 293.944733,132.805756 
	C292.127350,132.805756 290.537109,132.805756 288.221008,132.805756 
	C288.221008,126.000610 288.469849,119.209518 288.146851,112.445740 
	C287.858124,106.400009 284.209106,103.545937 278.201904,103.919052 
	C273.375458,104.218819 270.249207,107.009499 269.903656,112.156807 
	C269.513733,117.964592 269.561493,123.811134 269.650238,129.637299 
	C269.688385,132.142349 269.098297,133.483017 265.898682,133.027374 
z"/>
<path fill="#111111" opacity="1.000000" stroke="none" 
	d="
M58.359901,96.216797 
	C58.352432,94.123985 58.352432,92.501648 58.352432,90.852188 
	C64.730209,90.852188 70.683052,90.370064 76.522171,90.978790 
	C83.254929,91.680664 87.203178,96.869904 86.969902,103.323708 
	C86.741486,109.643280 82.273483,114.377106 75.565536,114.959023 
	C71.947739,115.272873 68.280327,115.014877 64.206108,115.014877 
	C64.206108,121.088585 64.206108,126.798164 64.206108,132.763779 
	C62.209534,132.763779 60.636238,132.763779 58.367374,132.763779 
	C58.367374,120.775864 58.367374,108.731567 58.359901,96.216797 
M72.249748,110.652367 
	C79.357727,109.600548 81.492180,107.492668 81.078621,101.933395 
	C80.715210,97.048241 77.845818,95.077141 70.987335,95.021843 
	C68.738281,95.003708 66.488968,95.018982 64.218643,95.018982 
	C64.218643,100.517014 64.218643,105.438026 64.218643,110.659157 
	C66.711571,110.659157 69.009369,110.659157 72.249748,110.652367 
z"/>
<path fill="#DE1A1A" opacity="1.000000" stroke="none" 
	d="
M471.975922,133.136047 
	C461.677917,129.751953 456.995422,121.100609 459.738678,111.203026 
	C462.247070,102.152710 471.018402,97.091820 480.299469,99.339874 
	C489.226959,101.502281 494.494019,110.069321 492.795471,119.665131 
	C491.110474,129.184372 483.033386,134.533508 471.975922,133.136047 
M482.105743,126.775703 
	C487.398682,123.054283 487.932861,117.663864 486.696625,112.071106 
	C485.734283,107.717331 482.700958,104.794724 478.117432,104.089195 
	C473.287567,103.345741 469.212860,104.715904 466.572205,109.111038 
	C463.865173,113.616684 464.461273,121.310486 467.747345,125.102806 
	C470.850891,128.684494 475.533447,129.374115 482.105743,126.775703 
z"/>
<path fill="#0B0B0B" opacity="1.000000" stroke="none" 
	d="
M147.135651,109.033539 
	C151.205780,123.459305 142.939316,134.754807 129.669235,133.438324 
	C121.656700,132.643417 115.934830,127.274689 114.921539,119.600815 
	C113.726463,110.550224 117.450394,103.137665 124.658066,100.220024 
	C132.307968,97.123360 141.017639,99.531685 145.586807,106.044830 
	C146.154312,106.853783 146.539368,107.790726 147.135651,109.033539 
M126.767403,104.845055 
	C121.075371,107.590149 119.913170,112.595993 120.467918,118.181389 
	C120.939156,122.926056 123.086090,126.710258 128.090103,128.114594 
	C132.657379,129.396347 136.630997,128.316467 139.811935,124.813202 
	C143.320801,120.948769 143.841583,114.328407 141.176254,109.454483 
	C138.575806,104.699203 134.505402,103.219948 126.767403,104.845055 
z"/>
<path fill="#E40F0F" opacity="1.000000" stroke="none" 
	d="
M378.619171,114.893730 
	C378.558441,114.192337 378.497711,113.490952 378.834534,112.271957 
	C379.036652,109.131912 378.841248,106.509453 378.645874,103.887001 
	C378.584656,103.492920 378.523468,103.098839 378.853027,102.305939 
	C380.518799,102.440598 381.755493,103.133957 383.082153,103.451744 
	C383.977844,103.666306 385.000336,103.351433 385.966125,103.273384 
	C391.934448,98.816681 398.239502,98.808052 404.770203,101.859695 
	C405.639191,102.265755 406.611267,102.570656 407.323853,103.172928 
	C412.384247,107.449799 413.956665,117.438545 410.739044,124.434120 
	C407.671661,131.102997 400.851166,134.778183 393.545990,133.067078 
	C390.696472,132.399597 388.159607,130.397232 385.169067,128.402496 
	C384.256714,128.852707 383.175018,129.885101 383.134369,130.957001 
	C382.908691,136.904892 382.935974,142.862381 382.876648,148.816559 
	C382.175934,148.859161 381.475189,148.901749 380.380035,148.430801 
	C379.953552,143.189743 380.047119,138.456589 379.835480,133.737122 
	C379.732513,131.441849 379.058929,129.172165 378.643677,126.890907 
	C378.574646,125.556717 378.505615,124.222534 378.828674,122.331085 
	C379.020233,119.480453 378.819702,117.187096 378.619171,114.893730 
M402.400299,126.815468 
	C402.599945,126.535393 402.799591,126.255325 403.192291,125.539619 
	C403.377228,125.262665 403.630035,125.079231 404.463806,124.752083 
	C404.604309,124.416039 404.744812,124.080002 405.064758,123.020996 
	C405.646454,120.621407 406.749634,118.212036 406.704865,115.824203 
	C406.601135,110.297523 404.049194,106.322510 398.691681,103.897552 
	C394.081238,101.810715 390.579529,103.663170 387.548706,106.307053 
	C382.730682,110.509979 382.381012,116.140709 384.147766,122.606689 
	C384.795471,123.054810 385.443207,123.502922 386.004822,123.983238 
	C386.004822,123.983238 386.067841,123.916328 386.061249,124.614922 
	C387.062866,125.392128 388.064514,126.169327 389.043243,126.999504 
	C389.043243,126.999504 389.022552,126.945694 389.332672,127.474060 
	C389.896118,127.644737 390.459564,127.815414 391.004822,128.003418 
	C391.004822,128.003418 391.005981,127.979858 391.354095,128.635437 
	C394.429810,130.900864 397.284485,130.435577 399.979340,128.003784 
	C399.979340,128.003784 399.938263,127.951744 400.566650,127.993103 
	C401.024078,127.619858 401.481537,127.246605 401.958679,126.963722 
	C401.958679,126.963722 401.878967,126.916832 402.400299,126.815468 
z"/>
<path fill="#0E0E0E" opacity="1.000000" stroke="none" 
	d="
M241.861328,103.851906 
	C236.522491,103.573143 232.922867,105.790825 231.372070,110.334412 
	C229.526413,115.741890 229.564499,121.308022 233.687103,125.809448 
	C236.458282,128.835281 240.286163,129.726654 244.210068,128.238312 
	C245.974060,127.569221 248.123260,126.446815 248.892090,124.922165 
	C250.604721,121.525909 253.068161,121.938736 255.896271,122.347595 
	C254.068207,130.078812 247.757385,134.276810 239.422989,133.465347 
	C230.358749,132.582825 224.828079,126.231499 224.695328,116.552399 
	C224.565689,107.101540 229.890549,100.258476 238.290985,99.080406 
	C247.057892,97.850945 253.746246,101.887032 255.955902,110.008034 
	C253.196655,110.215965 250.869461,110.963905 248.842758,107.643921 
	C247.688965,105.753883 244.529541,105.088203 241.861328,103.851906 
z"/>
<path fill="#DC1E1F" opacity="1.000000" stroke="none" 
	d="
M361.696777,130.452454 
	C356.420654,134.278275 351.057678,134.448730 345.813660,131.806763 
	C340.643738,129.202148 339.055328,124.301468 339.032318,118.809456 
	C339.005951,112.524117 339.026184,106.238586 339.026184,99.660767 
	C341.094299,99.660767 342.660461,99.660767 344.835266,99.660767 
	C344.835266,105.839661 344.771637,111.780937 344.851715,117.720284 
	C344.947388,124.818298 347.981842,128.434479 353.769989,128.560318 
	C359.796967,128.691345 363.178619,125.061066 363.404114,117.783371 
	C363.588409,111.834503 363.441589,105.875381 363.441589,99.649040 
	C365.441010,99.521927 366.877014,99.430634 368.741577,99.312096 
	C368.741577,110.626472 368.741577,121.657478 368.741577,134.231140 
	C365.991577,132.595108 364.007721,131.414871 361.696777,130.452454 
M363.998627,123.765228 
	C364.766083,126.403915 365.533508,129.042618 366.300934,131.681305 
	C366.706726,131.571243 367.112518,131.461197 367.518311,131.351135 
	C367.518311,121.464081 367.518311,111.577019 367.518311,101.689964 
	C367.004395,101.665848 366.490509,101.641731 365.976593,101.617615 
	C365.976593,104.611145 366.217621,107.629021 365.918457,110.592354 
	C365.499664,114.740845 364.678375,118.848694 363.998627,123.765228 
z"/>
<path fill="#D42021" opacity="1.000000" stroke="none" 
	d="
M444.044250,132.047165 
	C437.396149,135.243988 431.577759,133.332245 425.504456,128.150803 
	C425.504456,135.599594 425.504456,142.089615 425.504456,148.784927 
	C423.275360,148.784927 421.671967,148.784927 419.892822,148.784927 
	C419.892822,132.347717 419.892822,116.127815 419.892822,99.975777 
	C423.439362,98.537605 425.680237,98.997482 425.469696,103.975800 
	C433.491791,97.777359 441.165070,96.745277 448.862671,103.690628 
	C448.929871,104.094223 448.790100,104.272934 448.438782,104.178413 
	C446.000732,103.344177 443.914062,102.604469 440.495361,101.392570 
	C441.833374,103.625702 442.305206,104.413155 442.381226,105.144302 
	C434.313293,102.555786 428.431976,104.929413 426.110077,111.495033 
	C424.109222,117.152939 425.935852,123.634315 430.392090,126.688637 
	C435.289246,130.045166 440.346497,129.173019 446.016602,124.378746 
	C444.121613,131.129166 437.879364,129.274658 433.659454,131.697372 
	C437.015015,131.697372 440.370544,131.697372 443.805542,131.784912 
	C443.884979,131.872452 444.044250,132.047165 444.044250,132.047165 
M424.017303,119.143761 
	C424.119049,116.331268 423.744324,113.396484 424.427795,110.733292 
	C425.624542,106.070305 425.852570,105.910233 422.147339,101.137955 
	C422.147339,116.922577 422.147339,132.121368 422.147339,147.320175 
	C422.781677,147.321625 423.416016,147.323074 424.050385,147.324524 
	C423.045746,138.192688 425.461365,129.156754 424.017303,119.143761 
z"/>
<path fill="#0B0B0B" opacity="1.000000" stroke="none" 
	d="
M169.977051,90.286774 
	C174.111938,90.282616 177.752625,90.282616 181.700790,90.282616 
	C181.830399,91.881111 181.932739,93.143188 182.074692,94.893829 
	C178.110764,94.893829 174.347260,94.893829 170.261261,94.893829 
	C170.261261,107.803047 170.261261,120.244202 170.261261,132.838959 
	C168.313263,132.838959 166.693024,132.838959 164.770172,132.838959 
	C164.770172,120.217354 164.770172,107.771477 164.770172,95.021194 
	C160.840286,95.021194 157.207443,95.021194 153.305634,95.021194 
	C153.305634,93.363098 153.305634,92.014122 153.305634,90.290924 
	C158.871399,90.290924 164.177124,90.290924 169.977051,90.286774 
z"/>
<path fill="#DB2121" opacity="1.000000" stroke="none" 
	d="
M524.738525,127.864120 
	C524.620300,120.009361 524.620300,112.553383 524.620300,106.324707 
	C522.354553,104.230202 520.219849,103.148064 520.121216,101.904411 
	C520.030151,100.757088 522.124390,99.436409 524.021423,97.350586 
	C524.021423,96.326988 524.021423,94.028824 524.021423,91.351311 
	C525.975708,91.351311 527.663391,91.351311 529.637817,91.351311 
	C529.802856,93.891594 529.960571,96.319313 530.117004,98.726158 
	C533.005920,99.265305 535.691284,99.661530 538.280762,100.395790 
	C538.571655,100.478264 538.320129,102.473526 538.320129,103.901695 
	C535.699280,104.032425 533.256775,104.154251 530.075500,104.312935 
	C530.075500,111.344749 529.661743,118.441628 530.405396,125.415092 
	C530.564697,126.908676 534.917603,127.955078 538.331543,129.721130 
	C538.333191,129.740784 538.449707,131.109650 538.538330,132.151657 
	C535.659119,134.866196 527.411682,132.229126 524.738525,127.864120 
z"/>
<path fill="#121212" opacity="1.000000" stroke="none" 
	d="
M93.939804,114.006096 
	C93.939804,109.037949 93.939804,104.568405 93.939804,99.762627 
	C96.765297,99.601494 100.021980,97.695412 99.730171,102.757942 
	C103.034683,101.213272 106.160095,99.752327 109.991119,97.961540 
	C109.991119,100.832130 109.991119,102.543678 109.991119,104.248970 
	C100.796837,106.208244 99.662811,107.617599 99.604301,117.269157 
	C99.573288,122.383728 99.598808,127.498627 99.598808,132.820312 
	C97.591721,132.820312 95.999710,132.820312 93.939804,132.820312 
	C93.939804,126.705383 93.939804,120.605042 93.939804,114.006096 
z"/>
<path fill="#E51113" opacity="1.000000" stroke="none" 
	d="
M309.065033,104.982971 
	C309.403748,105.044594 309.666687,105.219856 310.042603,105.978188 
	C310.537811,106.603386 310.844299,106.759163 311.150757,106.914932 
	C311.150757,106.914932 311.063629,106.939461 311.190308,107.241554 
	C315.907928,109.006355 320.498810,110.469070 325.089722,111.931778 
	C325.089722,111.931770 325.017670,111.994087 325.069031,112.307251 
	C326.103394,113.064545 327.086395,113.508675 328.069397,113.952805 
	C328.069397,113.952805 328.003601,113.996452 328.011719,114.325150 
	C328.697968,115.425362 329.376068,116.196869 330.054169,116.968369 
	C330.054169,116.968369 329.993195,116.981560 329.993469,117.396606 
	C329.473480,121.332748 328.953217,124.853844 328.432983,128.374939 
	C328.432983,128.374939 328.181427,127.959915 327.997131,128.174988 
	C327.703613,128.735535 327.594421,129.080994 327.485199,129.426453 
	C327.485199,129.426453 327.227264,129.254501 327.011475,129.300354 
	C326.215454,129.933044 325.635193,130.519882 325.054962,131.106720 
	C325.054962,131.106720 325.019135,131.011398 324.630981,131.020020 
	C322.142792,131.356400 320.021576,131.585342 317.946808,132.030823 
	C312.226227,133.259079 308.519653,129.024307 303.997375,127.003494 
	C303.997375,127.003494 304.000000,127.000000 304.014404,126.657173 
	C304.634491,121.841988 306.962006,123.842957 309.058777,124.976410 
	C309.058777,124.976410 308.996338,124.986183 309.004089,125.345139 
	C312.259369,131.517014 320.066711,131.976334 323.630371,126.564140 
	C323.630371,126.564140 323.691223,126.711197 323.950195,126.661720 
	C324.451172,126.044655 324.693237,125.477066 324.935303,124.909485 
	C324.935303,124.909485 324.985535,124.975281 325.279602,124.820068 
	C327.938324,121.487732 327.389984,118.956894 323.890991,117.080696 
	C323.890991,117.080696 323.983063,117.011978 323.928223,116.697525 
	C319.566315,114.932472 315.259247,113.481865 310.952148,112.031250 
	C310.952148,112.031250 310.981689,111.992882 310.937622,111.671684 
	C308.593719,109.903053 306.293854,108.455620 303.994019,107.008179 
	C303.994019,107.008179 304.000000,107.000305 304.007965,106.553581 
	C304.330994,102.389297 304.646027,98.671745 304.961060,94.954185 
	C304.961060,94.954185 305.002106,94.995865 305.216309,94.879044 
	C305.594940,94.463020 305.759399,94.163834 305.923859,93.864639 
	C305.923859,93.864639 305.949463,93.950310 306.158478,93.866859 
	C306.571228,93.510887 306.774963,93.238365 306.978729,92.965851 
	C306.978729,92.965851 306.998260,93.001450 307.408020,92.995552 
	C313.899384,92.977524 319.980988,92.965393 326.062622,92.953262 
	C326.062622,92.953262 326.008240,93.000160 326.123566,93.209473 
	C326.538544,93.584984 326.838165,93.751175 327.137817,93.917366 
	C327.137817,93.917366 327.050507,93.947838 327.144287,94.160202 
	C327.530304,94.562057 327.822540,94.751556 328.114746,94.941055 
	C328.114746,94.941048 328.020905,94.975845 328.022278,95.351219 
	C328.006104,97.382912 327.988525,99.039238 327.970947,100.695557 
	C327.536987,100.751396 327.103088,100.807236 326.304138,100.453873 
	C324.928345,99.043968 323.917603,98.043274 322.906860,97.042572 
	C322.906860,97.042580 322.985382,97.014450 322.942749,96.670830 
	C319.850128,92.131714 315.594513,93.178558 311.816101,94.355515 
	C307.201294,95.792992 305.972931,101.466072 309.065033,104.982971 
z"/>
<path fill="#D52B2C" opacity="1.000000" stroke="none" 
	d="
M505.944977,122.013199 
	C505.944885,125.804207 505.944885,129.105850 505.944885,132.739899 
	C503.897278,132.739899 502.195526,132.739899 500.258606,132.739899 
	C500.258606,121.791229 500.258606,111.019897 500.258606,100.000175 
	C503.000458,99.112747 505.754547,97.933182 506.190674,102.389572 
	C509.347198,101.040756 512.544006,99.674728 516.497253,97.985466 
	C516.637451,100.767296 516.717285,102.351189 516.791809,103.829414 
	C513.921326,104.897987 510.629486,105.193314 508.968445,106.993439 
	C507.171204,108.941170 506.638214,112.238632 506.042114,115.050926 
	C505.603088,117.122375 505.948944,119.360176 505.944977,122.013199 
M504.048370,124.386002 
	C504.499542,118.259399 504.950714,112.132790 505.401886,106.006187 
	C505.818024,106.022369 506.234131,106.038559 506.650238,106.054741 
	C505.427826,104.495308 504.205414,102.935875 502.539825,100.811073 
	C502.539825,111.520332 502.539825,121.439621 502.539825,131.358902 
	C503.042664,131.370132 503.545502,131.381363 504.048340,131.392593 
	C504.048340,129.374084 504.048340,127.355591 504.048370,124.386002 
z"/>
<path fill="#D43C3D" opacity="1.000000" stroke="none" 
	d="
M378.474823,127.339394 
	C379.058929,129.172165 379.732513,131.441849 379.835480,133.737122 
	C380.047119,138.456589 379.953552,143.189743 380.032745,148.372986 
	C379.448853,147.788116 378.297241,146.759628 378.272827,145.705002 
	C378.134491,139.736099 378.266235,133.760925 378.474823,127.339394 
z"/>
<path fill="#D42021" opacity="1.000000" stroke="none" 
	d="
M449.995605,105.003838 
	C455.221222,112.083595 454.813599,119.351700 450.327332,126.839386 
	C449.932190,126.935814 449.737152,126.750168 449.830994,126.382858 
	C450.621735,122.038437 451.800476,118.068031 451.855988,114.081985 
	C451.897003,111.138084 450.473602,108.173790 449.775818,105.164818 
	C449.848999,105.111053 449.995605,105.003838 449.995605,105.003838 
z"/>
<path fill="#DA1E1F" opacity="1.000000" stroke="none" 
	d="
M304.050903,127.341301 
	C308.519653,129.024307 312.226227,133.259079 317.946808,132.030823 
	C320.021576,131.585342 322.142792,131.356400 324.667664,131.055328 
	C317.996979,135.293121 309.849457,133.972137 304.050903,127.341301 
z"/>
<path fill="#DA1E1F" opacity="1.000000" stroke="none" 
	d="
M308.975952,104.544983 
	C305.972931,101.466072 307.201294,95.792992 311.816101,94.355515 
	C315.594513,93.178558 319.850128,92.131714 322.921509,96.706726 
	C320.653809,96.335274 318.390137,95.047691 316.070679,94.937836 
	C310.038300,94.652100 307.644836,97.933464 308.975952,104.544983 
z"/>
<path fill="#DA1E1F" opacity="1.000000" stroke="none" 
	d="
M325.877197,92.639702 
	C319.980988,92.965393 313.899384,92.977524 307.393250,92.980957 
	C313.060028,88.418015 319.327423,88.968178 325.877197,92.639702 
z"/>
<path fill="#DA1E1F" opacity="1.000000" stroke="none" 
	d="
M323.255310,126.714417 
	C320.066711,131.976334 312.259369,131.517014 309.025452,125.321854 
	C313.926666,129.342468 316.754181,129.735733 323.255310,126.714417 
z"/>
<path fill="#D43C3D" opacity="1.000000" stroke="none" 
	d="
M383.317017,148.744781 
	C382.935974,142.862381 382.908691,136.904892 383.134369,130.957001 
	C383.175018,129.885101 384.256714,128.852707 384.908264,128.116241 
	C384.687134,133.240799 384.420868,138.051529 384.141113,142.861450 
	C384.028412,144.799515 383.886169,146.735855 383.317017,148.744781 
z"/>
<path fill="#DA1E1F" opacity="1.000000" stroke="none" 
	d="
M309.027008,124.610870 
	C306.962006,123.842957 304.634491,121.841988 304.012695,126.658188 
	C303.329529,125.555824 302.662537,124.109627 301.787598,122.212563 
	C304.969299,121.552513 307.709900,120.124435 309.027008,124.610870 
z"/>
<path fill="#DA1E1F" opacity="1.000000" stroke="none" 
	d="
M324.871857,111.646591 
	C320.498810,110.469070 315.907928,109.006355 311.191406,107.196304 
	C315.595215,108.353111 320.124603,109.857254 324.871857,111.646591 
z"/>
<path fill="#DA1E1F" opacity="1.000000" stroke="none" 
	d="
M311.217438,112.275391 
	C315.259247,113.481865 319.566315,114.932472 323.897095,116.745796 
	C319.774750,115.578850 315.628754,114.049187 311.217438,112.275391 
z"/>
<path fill="#D43C3D" opacity="1.000000" stroke="none" 
	d="
M385.552155,103.325089 
	C385.000336,103.351433 383.977844,103.666306 383.082153,103.451744 
	C381.755493,103.133957 380.518799,102.440598 378.943207,102.017059 
	C378.046265,96.940239 381.747589,100.198578 383.350250,99.274399 
	C384.054932,100.891273 384.596558,102.134033 385.552155,103.325089 
z"/>
<path fill="#DA1E1F" opacity="1.000000" stroke="none" 
	d="
M304.651001,95.128174 
	C304.646027,98.671745 304.330994,102.389297 304.003967,106.555481 
	C301.496216,103.025558 302.204376,99.142563 304.651001,95.128174 
z"/>
<path fill="#DA1E1F" opacity="1.000000" stroke="none" 
	d="
M304.039856,107.346115 
	C306.293854,108.455620 308.593719,109.903053 310.936340,111.695656 
	C308.681274,110.588570 306.383484,109.136314 304.039856,107.346115 
z"/>
<path fill="#D43C3D" opacity="1.000000" stroke="none" 
	d="
M378.477539,104.319382 
	C378.841248,106.509453 379.036652,109.131912 378.933716,111.930740 
	C378.526672,109.655327 378.417969,107.203552 378.477539,104.319382 
z"/>
<path fill="#DA1E1F" opacity="1.000000" stroke="none" 
	d="
M328.721039,128.159653 
	C328.953217,124.853844 329.473480,121.332748 330.017761,117.376862 
	C332.081482,120.833267 331.309326,124.460533 328.721039,128.159653 
z"/>
<path fill="#D42021" opacity="1.000000" stroke="none" 
	d="
M450.029663,127.028702 
	C448.328735,128.747040 446.530365,130.372482 444.388123,132.022552 
	C444.044250,132.047165 443.884979,131.872452 443.959167,131.501450 
	C445.934631,129.670349 447.835907,128.210266 449.737152,126.750168 
	C449.737152,126.750168 449.932190,126.935814 450.029663,127.028702 
z"/>
<path fill="#DA1E1F" opacity="1.000000" stroke="none" 
	d="
M328.302521,100.791794 
	C327.988525,99.039238 328.006104,97.382912 328.052856,95.311600 
	C329.513397,96.778816 332.173492,98.547806 328.302521,100.791794 
z"/>
<path fill="#D43C3D" opacity="1.000000" stroke="none" 
	d="
M378.454559,115.321976 
	C378.819702,117.187096 379.020233,119.480453 378.924805,121.939552 
	C378.515839,119.986931 378.402893,117.868576 378.454559,115.321976 
z"/>
<path fill="#DA1E1F" opacity="1.000000" stroke="none" 
	d="
M324.036163,117.456184 
	C327.389984,118.956894 327.938324,121.487732 325.238647,124.814102 
	C324.662842,122.586128 324.422089,120.208900 324.036163,117.456184 
z"/>
<path fill="#DA1E1F" opacity="1.000000" stroke="none" 
	d="
M322.999573,97.362762 
	C323.917603,98.043274 324.928345,99.043968 325.988434,100.353958 
	C325.055939,99.669815 324.074127,98.676384 322.999573,97.362762 
z"/>
<path fill="#DA1E1F" opacity="1.000000" stroke="none" 
	d="
M330.055206,116.644470 
	C329.376068,116.196869 328.697968,115.425362 328.033508,114.292213 
	C328.716888,114.727242 329.386566,115.523903 330.055206,116.644470 
z"/>
<path fill="#DA1E1F" opacity="1.000000" stroke="none" 
	d="
M327.951477,113.653603 
	C327.086395,113.508675 326.103394,113.064545 325.087952,112.263535 
	C325.981506,112.389236 326.907532,112.871819 327.951477,113.653603 
z"/>
<path fill="#DA1E1F" opacity="1.000000" stroke="none" 
	d="
M325.358978,131.079254 
	C325.635193,130.519882 326.215454,129.933044 327.120544,129.410461 
	C326.851288,130.000412 326.257141,130.526108 325.358978,131.079254 
z"/>
<path fill="#DA1E1F" opacity="1.000000" stroke="none" 
	d="
M324.681091,125.044479 
	C324.693237,125.477066 324.451172,126.044655 323.878601,126.626923 
	C323.841034,126.154228 324.133972,125.666855 324.681091,125.044479 
z"/>
<path fill="#DA1E1F" opacity="1.000000" stroke="none" 
	d="
M311.045502,106.669067 
	C310.844299,106.759163 310.537811,106.603386 310.118408,106.208496 
	C310.317078,106.120659 310.628662,106.271927 311.045502,106.669067 
z"/>
<path fill="#DA1E1F" opacity="1.000000" stroke="none" 
	d="
M327.710144,129.325058 
	C327.594421,129.080994 327.703613,128.735535 328.113068,128.387405 
	C328.373779,128.732697 328.214355,129.012344 327.710144,129.325058 
z"/>
<path fill="#D42021" opacity="1.000000" stroke="none" 
	d="
M449.002441,104.007042 
	C449.351318,104.109947 449.627625,104.300041 449.949768,104.746979 
	C449.995605,105.003838 449.848999,105.111053 449.617004,105.014244 
	C449.175018,104.713371 448.976715,104.498543 448.790100,104.272934 
	C448.790100,104.272934 448.929871,104.094223 449.002441,104.007042 
z"/>
<path fill="#DA1E1F" opacity="1.000000" stroke="none" 
	d="
M328.059784,94.668762 
	C327.822540,94.751556 327.530304,94.562057 327.158264,94.116119 
	C327.387207,94.038612 327.696014,94.217545 328.059784,94.668762 
z"/>
<path fill="#DA1E1F" opacity="1.000000" stroke="none" 
	d="
M305.661987,93.943382 
	C305.759399,94.163834 305.594940,94.463020 305.189850,94.866959 
	C305.099487,94.655167 305.249786,94.338646 305.661987,93.943382 
z"/>
<path fill="#DA1E1F" opacity="1.000000" stroke="none" 
	d="
M327.058807,93.654236 
	C326.838165,93.751175 326.538544,93.584984 326.136108,93.175858 
	C326.348846,93.085648 326.664307,93.238373 327.058807,93.654236 
z"/>
<path fill="#DA1E1F" opacity="1.000000" stroke="none" 
	d="
M306.707764,93.004280 
	C306.774963,93.238365 306.571228,93.510887 306.115570,93.854324 
	C306.054688,93.631065 306.245728,93.336891 306.707764,93.004280 
z"/>
<path fill="#F3F3F3" opacity="1.000000" stroke="none" 
	d="
M203.899567,103.797058 
	C210.868103,105.029976 212.780396,107.022415 213.545959,113.591713 
	C212.939636,113.690063 212.325439,113.874176 211.710602,113.876335 
	C205.578827,113.897865 199.446930,113.889397 193.319107,113.889397 
	C193.248627,107.394440 196.312576,104.417374 203.899567,103.797058 
z"/>
<path fill="#F8F8F8" opacity="1.000000" stroke="none" 
	d="
M71.778458,110.655762 
	C69.009369,110.659157 66.711571,110.659157 64.218643,110.659157 
	C64.218643,105.438026 64.218643,100.517014 64.218643,95.018982 
	C66.488968,95.018982 68.738281,95.003708 70.987335,95.021843 
	C77.845818,95.077141 80.715210,97.048241 81.078621,101.933395 
	C81.492180,107.492668 79.357727,109.600548 71.778458,110.655762 
z"/>
<path fill="#FEF7F6" opacity="1.000000" stroke="none" 
	d="
M481.765503,126.946480 
	C475.533447,129.374115 470.850891,128.684494 467.747345,125.102806 
	C464.461273,121.310486 463.865173,113.616684 466.572205,109.111038 
	C469.212860,104.715904 473.287567,103.345741 478.117432,104.089195 
	C482.700958,104.794724 485.734283,107.717331 486.696625,112.071106 
	C487.932861,117.663864 487.398682,123.054283 481.765503,126.946480 
z"/>
<path fill="#F9F9F9" opacity="1.000000" stroke="none" 
	d="
M127.123901,104.661118 
	C134.505402,103.219948 138.575806,104.699203 141.176254,109.454483 
	C143.841583,114.328407 143.320801,120.948769 139.811935,124.813202 
	C136.630997,128.316467 132.657379,129.396347 128.090103,128.114594 
	C123.086090,126.710258 120.939156,122.926056 120.467918,118.181389 
	C119.913170,112.595993 121.075371,107.590149 127.123901,104.661118 
z"/>
<path fill="#FEF4F3" opacity="1.000000" stroke="none" 
	d="
M403.950714,124.989326 
	C403.630035,125.079231 403.377228,125.262665 402.836975,125.813492 
	C402.280731,126.363853 402.079834,126.640335 401.878967,126.916824 
	C401.878967,126.916832 401.958679,126.963722 401.652893,126.946053 
	C400.877502,127.269508 400.407898,127.610634 399.938263,127.951752 
	C399.938263,127.951744 399.979340,128.003784 399.524109,127.978546 
	C396.381226,127.962166 393.693604,127.971008 391.005981,127.979858 
	C391.005981,127.979858 391.004822,128.003418 390.824280,127.769867 
	C390.103333,127.339439 389.562958,127.142570 389.022552,126.945694 
	C389.022552,126.945694 389.043243,126.999504 388.913330,126.697983 
	C387.878204,125.569756 386.973022,124.743042 386.067841,123.916336 
	C386.067841,123.916328 386.004822,123.983238 386.012573,123.658592 
	C385.362610,122.894165 384.704926,122.454376 384.047241,122.014595 
	C382.381012,116.140709 382.730682,110.509979 387.548706,106.307053 
	C390.579529,103.663170 394.081238,101.810715 398.691681,103.897552 
	C404.049194,106.322510 406.601135,110.297523 406.704865,115.824203 
	C406.749634,118.212036 405.646454,120.621407 404.726990,123.508896 
	C404.243042,124.327644 404.096893,124.658485 403.950714,124.989326 
z"/>
<path fill="#D63132" opacity="1.000000" stroke="none" 
	d="
M391.180054,128.307648 
	C393.693604,127.971008 396.381226,127.962166 399.521759,127.945511 
	C397.284485,130.435577 394.429810,130.900864 391.180054,128.307648 
z"/>
<path fill="#D43C3D" opacity="1.000000" stroke="none" 
	d="
M386.064545,124.265625 
	C386.973022,124.743042 387.878204,125.569756 388.924774,126.671494 
	C388.064514,126.169327 387.062866,125.392128 386.064545,124.265625 
z"/>
<path fill="#D43C3D" opacity="1.000000" stroke="none" 
	d="
M384.097504,122.310638 
	C384.704926,122.454376 385.362610,122.894165 386.055603,123.642487 
	C385.443207,123.502922 384.795471,123.054810 384.097504,122.310638 
z"/>
<path fill="#D63132" opacity="1.000000" stroke="none" 
	d="
M400.252441,127.972427 
	C400.407898,127.610634 400.877502,127.269508 401.643036,126.900864 
	C401.481537,127.246605 401.024078,127.619858 400.252441,127.972427 
z"/>
<path fill="#D63132" opacity="1.000000" stroke="none" 
	d="
M389.177612,127.209885 
	C389.562958,127.142570 390.103333,127.339439 390.833374,127.761200 
	C390.459564,127.815414 389.896118,127.644737 389.177612,127.209885 
z"/>
<path fill="#D63132" opacity="1.000000" stroke="none" 
	d="
M402.139648,126.866150 
	C402.079834,126.640335 402.280731,126.363853 402.740417,126.031311 
	C402.799591,126.255325 402.599945,126.535393 402.139648,126.866150 
z"/>
<path fill="#D63132" opacity="1.000000" stroke="none" 
	d="
M404.207275,124.870705 
	C404.096893,124.658485 404.243042,124.327644 404.637268,123.870377 
	C404.744812,124.080002 404.604309,124.416039 404.207275,124.870705 
z"/>
<path fill="#ED0708" opacity="1.000000" stroke="none" 
	d="
M364.013947,123.369576 
	C364.678375,118.848694 365.499664,114.740845 365.918457,110.592354 
	C366.217621,107.629021 365.976593,104.611145 365.976593,101.617615 
	C366.490509,101.641731 367.004395,101.665848 367.518311,101.689964 
	C367.518311,111.577019 367.518311,121.464081 367.518311,131.351135 
	C367.112518,131.461197 366.706726,131.571243 366.300934,131.681305 
	C365.533508,129.042618 364.766083,126.403915 364.013947,123.369576 
z"/>
<path fill="#FEF6F5" opacity="1.000000" stroke="none" 
	d="
M446.004059,123.996239 
	C440.346497,129.173019 435.289246,130.045166 430.392090,126.688637 
	C425.935852,123.634315 424.109222,117.152939 426.110077,111.495033 
	C428.431976,104.929413 434.313293,102.555786 442.392334,105.119736 
	C442.799194,105.151466 442.764343,105.178825 442.869171,105.436874 
	C443.306091,105.842049 443.638214,105.989182 444.047974,106.352356 
	C444.319000,106.831284 444.577850,106.981064 444.966827,107.285538 
	C445.321442,107.757980 445.611298,107.962631 445.919250,108.120392 
	C445.937286,108.073502 445.842590,108.107147 445.922424,108.483109 
	C446.622040,112.542999 447.241882,116.226921 447.923859,119.938797 
	C447.985992,119.966759 447.884888,119.875389 447.643860,120.101913 
	C447.179565,121.178589 446.956268,122.028740 446.796997,122.883423 
	C446.861084,122.887955 446.815521,122.767838 446.564117,122.878418 
	C446.207794,123.328110 446.102875,123.667213 445.999146,124.003540 
	C446.000366,124.000771 446.004059,123.996239 446.004059,123.996239 
z"/>
<path fill="#EC0707" opacity="1.000000" stroke="none" 
	d="
M444.902100,107.017746 
	C444.577850,106.981064 444.319000,106.831284 443.945679,106.088058 
	C443.431915,105.464745 443.098145,105.321785 442.764343,105.178825 
	C442.764343,105.178825 442.799194,105.151466 442.788086,105.176033 
	C442.305206,104.413155 441.833374,103.625702 440.495361,101.392570 
	C443.914062,102.604469 446.000732,103.344177 448.438782,104.178413 
	C448.976715,104.498543 449.175018,104.713371 449.543823,105.068008 
	C450.473602,108.173790 451.897003,111.138084 451.855988,114.081985 
	C451.800476,118.068031 450.621735,122.038437 449.830994,126.382858 
	C447.835907,128.210266 445.934631,129.670349 443.879761,131.413910 
	C440.370544,131.697372 437.015015,131.697372 433.659454,131.697372 
	C437.879364,129.274658 444.121613,131.129166 446.016602,124.378746 
	C446.004059,123.996239 446.000366,124.000771 446.241943,123.880798 
	C446.594208,123.429832 446.704865,123.098831 446.815521,122.767838 
	C446.815521,122.767838 446.861084,122.887955 447.125793,122.740700 
	C447.555267,121.687424 447.720093,120.781410 447.884888,119.875389 
	C447.884888,119.875389 447.985992,119.966759 448.309570,119.901276 
	C450.830353,115.936508 449.586243,110.707527 445.842590,108.107147 
	C445.842590,108.107147 445.937286,108.073502 445.860077,107.850418 
	C445.489288,107.424141 445.195679,107.220947 444.902100,107.017746 
z"/>
<path fill="#EE0607" opacity="1.000000" stroke="none" 
	d="
M424.019958,119.578247 
	C425.461365,129.156754 423.045746,138.192688 424.050385,147.324524 
	C423.416016,147.323074 422.781677,147.321625 422.147339,147.320175 
	C422.147339,132.121368 422.147339,116.922577 422.147339,101.137955 
	C425.852570,105.910233 425.624542,106.070305 424.427795,110.733292 
	C423.744324,113.396484 424.119049,116.331268 424.019958,119.578247 
z"/>
<path fill="#EE0707" opacity="1.000000" stroke="none" 
	d="
M504.048340,124.861549 
	C504.048340,127.355591 504.048340,129.374084 504.048340,131.392593 
	C503.545502,131.381363 503.042664,131.370132 502.539825,131.358902 
	C502.539825,121.439621 502.539825,111.520332 502.539825,100.811073 
	C504.205414,102.935875 505.427826,104.495308 506.650238,106.054741 
	C506.234131,106.038559 505.818024,106.022369 505.401886,106.006187 
	C504.950714,112.132790 504.499542,118.259399 504.048340,124.861549 
z"/>
<path fill="#D42021" opacity="1.000000" stroke="none" 
	d="
M445.922424,108.483109 
	C449.586243,110.707527 450.830353,115.936508 448.247437,119.873322 
	C447.241882,116.226921 446.622040,112.542999 445.922424,108.483109 
z"/>
<path fill="#D42021" opacity="1.000000" stroke="none" 
	d="
M447.643860,120.101913 
	C447.720093,120.781410 447.555267,121.687424 447.061707,122.736160 
	C446.956268,122.028740 447.179565,121.178589 447.643860,120.101913 
z"/>
<path fill="#D42021" opacity="1.000000" stroke="none" 
	d="
M442.869171,105.436874 
	C443.098145,105.321785 443.431915,105.464745 443.868011,105.872009 
	C443.638214,105.989182 443.306091,105.842049 442.869171,105.436874 
z"/>
<path fill="#D42021" opacity="1.000000" stroke="none" 
	d="
M444.966827,107.285538 
	C445.195679,107.220947 445.489288,107.424141 445.842041,107.897308 
	C445.611298,107.962631 445.321442,107.757980 444.966827,107.285538 
z"/>
<path fill="#D42021" opacity="1.000000" stroke="none" 
	d="
M446.564117,122.878418 
	C446.704865,123.098831 446.594208,123.429832 446.240723,123.883575 
	C446.102875,123.667213 446.207794,123.328110 446.564117,122.878418 
z"/>
</svg>