<?xml version="1.0" standalone="no"?>
<!DOCTYPE svg PUBLIC "-//W3C//DTD SVG 20010904//EN"
 "http://www.w3.org/TR/2001/REC-SVG-20010904/DTD/svg10.dtd">
<svg version="1.0" xmlns="http://www.w3.org/2000/svg"
 width="300.000000pt" height="96.000000pt" viewBox="0 0 300.000000 96.000000"
 preserveAspectRatio="xMidYMid meet">
<metadata>
Created by potrace 1.10, written by Peter Selinger 2001-2011
</metadata>
<g transform="translate(0.000000,96.000000) scale(0.100000,-0.100000)"
fill="#000000" stroke="none">
<path d="M100 485 l0 -386 143 3 c83 2 142 7 142 13 0 6 -50 8 -127 6 l-128
-3 0 366 0 366 355 0 355 0 0 -131 c0 -100 3 -130 13 -127 9 3 13 43 15 141
l3 137 -386 0 -385 0 0 -385z"/>
<path d="M1483 503 c-10 -3 -13 -39 -13 -130 0 -123 0 -124 23 -121 20 3 22 9
25 68 3 71 13 90 48 90 32 0 44 -27 44 -99 0 -54 2 -61 20 -61 18 0 20 7 20
75 0 95 -18 119 -85 113 -44 -3 -44 -3 -47 31 -3 35 -12 44 -35 34z"/>
<path d="M350 370 c0 -113 1 -120 20 -120 17 0 20 7 20 50 l0 50 39 0 c75 0
114 68 67 114 -21 22 -34 26 -86 26 l-60 0 0 -120z m108 81 c8 -5 12 -21 10
-37 -3 -26 -7 -29 -40 -32 l-38 -3 0 40 c0 38 2 41 28 41 15 0 33 -4 40 -9z"/>
<path d="M867 483 c-15 -15 -5 -23 28 -23 l35 0 0 -106 c0 -102 1 -105 21
-102 21 3 22 8 20 106 l-2 102 35 0 c25 0 36 4 36 15 0 12 -16 15 -83 15 -46
0 -87 -3 -90 -7z"/>
<path d="M1712 473 c-34 -30 -37 -59 -8 -88 14 -14 33 -25 43 -25 28 0 63 -28
63 -50 0 -31 -49 -39 -71 -12 -18 23 -44 29 -54 12 -3 -5 5 -21 19 -35 49 -48
146 -19 146 45 0 32 -18 49 -74 70 -33 13 -41 20 -41 40 0 20 6 26 28 28 18 2
29 -2 33 -12 8 -20 54 -21 54 -2 0 41 -100 62 -138 29z"/>
<path d="M2907 483 c-4 -3 -7 -15 -7 -25 0 -20 -2 -20 -77 -20 l-53 1 0 -95
c0 -87 1 -94 20 -94 18 0 20 7 20 64 0 74 14 96 61 96 l29 0 0 -70 c0 -75 10
-90 64 -90 32 0 35 27 4 32 -21 3 -23 9 -26 66 -3 61 -2 62 23 62 16 0 25 6
25 15 0 9 -9 15 -25 15 -20 0 -25 5 -25 25 0 24 -18 34 -33 18z"/>
<path d="M540 344 c0 -93 1 -95 23 -92 20 3 22 9 25 68 3 69 13 90 43 90 11 0
19 6 19 14 0 11 -14 15 -55 15 l-55 0 0 -95z"/>
<path d="M686 415 c-36 -34 -37 -105 -1 -140 34 -35 93 -34 134 1 26 22 31 33
31 70 0 62 -32 94 -93 94 -33 0 -51 -6 -71 -25z m108 -27 c9 -12 16 -32 16
-43 0 -29 -28 -65 -51 -65 -48 0 -78 79 -43 114 22 23 60 20 78 -6z"/>
<path d="M1079 411 c-81 -81 17 -200 120 -146 39 20 48 45 16 45 -14 0 -25 -4
-25 -10 0 -16 -46 -23 -69 -10 -12 6 -21 17 -21 25 0 10 17 15 68 17 65 3 67
4 70 32 9 73 -100 106 -159 47z m105 -17 c26 -26 18 -34 -34 -34 -34 0 -50 4
-50 13 0 35 56 50 84 21z"/>
<path d="M1299 427 c-25 -19 -39 -52 -39 -92 0 -49 39 -85 90 -85 40 0 90 31
90 56 0 20 -24 17 -45 -6 -35 -39 -95 -11 -95 45 0 52 61 85 90 50 16 -19 50
-20 50 -1 0 38 -103 62 -141 33z"/>
<path d="M1885 431 c-3 -5 -2 -42 1 -81 9 -88 22 -99 112 -98 l62 1 0 93 c0
87 -1 94 -20 94 -18 0 -20 -7 -20 -63 0 -80 -16 -106 -57 -92 -27 10 -28 13
-31 83 -3 63 -5 72 -22 72 -10 0 -21 -4 -25 -9z"/>
<path d="M2102 303 c3 -115 6 -138 18 -138 11 0 16 15 20 52 4 44 8 51 20 43
28 -18 80 -11 105 14 63 63 32 166 -51 166 -19 0 -44 -5 -55 -10 -13 -7 -19
-7 -19 0 0 5 -9 10 -20 10 -20 0 -20 -5 -18 -137z m128 97 c42 -23 31 -104
-16 -116 -37 -10 -79 36 -69 75 12 49 42 64 85 41z"/>
<path d="M2328 304 c-2 -75 0 -138 4 -140 3 -2 13 -1 22 2 12 4 16 19 16 54
l0 48 28 -10 c36 -14 75 -4 102 24 29 32 28 107 -3 136 -26 25 -95 30 -115 10
-9 -9 -12 -9 -12 0 0 7 -9 12 -19 12 -19 0 -20 -9 -23 -136z m134 89 c36 -32
12 -113 -34 -113 -27 0 -58 36 -58 67 0 54 54 81 92 46z"/>
<path d="M2583 425 c-30 -21 -48 -82 -34 -117 15 -41 54 -62 102 -55 22 3 49
13 60 23 39 35 32 131 -12 154 -27 15 -92 12 -116 -5z m106 -49 c28 -60 -32
-123 -79 -81 -23 21 -28 83 -8 103 23 23 71 10 87 -22z"/>
</g>
</svg>
